<?xml version="1.0" encoding="UTF-8"?>
<!DOCTYPE svg PUBLIC "-//W3C//DTD SVG 1.1//EN" "http://www.w3.org/Graphics/SVG/1.1/DTD/svg11.dtd">
<!-- Creator: CorelDRAW 2018 (64 Bit) -->
<svg xmlns="http://www.w3.org/2000/svg" xml:space="preserve" width="1200px" height="1318px" version="1.1" shape-rendering="geometricPrecision" text-rendering="geometricPrecision" image-rendering="optimizeQuality" fill-rule="evenodd" clip-rule="evenodd"
viewBox="0 0 1200 1318"
 xmlns:xlink="http://www.w3.org/1999/xlink">
 <g id="Capa_x0020_1">
  <metadata id="CorelCorpID_0Corel-Layer"/>
  <polygon fill="#848688" points="0,10.63 676.96,10.63 676.96,0.18 0,0.18 "/>
  <polygon fill="#848688" points="0,1318 676.96,1318 676.96,1314.88 0,1314.88 "/>
  <path fill="#FEFEFE" fill-rule="nonzero" d="M339.65 14.17l-336.15 0 0 1297.16 336.15 0 0 -1297.16zm-337.32 -2.36l339.65 0 0 1301.88 -340.81 0c-0.43,-433.93 -0.43,-867.95 0,-1301.88l1.16 0z"/>
  <polygon fill="#DCDDDF" points="238.36,12.99 135.91,12.99 135.91,1312.51 238.36,1312.51 "/>
  <path fill="#FEFEFE" fill-rule="nonzero" d="M237.19 14.17l-100.11 0 0 1297.16 100.11 0 0 -1297.16zm-101.28 -2.36l103.62 0 0 1301.88 -104.79 0 0 -1301.88 1.17 0z"/>
  <polygon fill="#D2D3D5" points="340.81,12.99 238.36,12.99 238.36,1312.51 340.81,1312.51 "/>
  <path fill="#FEFEFE" fill-rule="nonzero" d="M339.65 14.17l-100.12 0 0 1297.16 100.12 0 0 -1297.16zm-101.29 -2.36l103.62 0 0 1301.88 -104.79 0 0 -1301.88 1.17 0z"/>
  <polygon fill="#E6E7E8" points="135.91,12.99 33.46,12.99 33.46,1312.51 135.91,1312.51 "/>
  <path fill="#FEFEFE" fill-rule="nonzero" d="M134.74 14.17l-100.11 0 0 1297.16 100.11 0 0 -1297.16zm-101.28 -2.36l103.62 0c-0.43,433.93 -0.43,867.95 0,1301.88l-104.79 0 0 -1301.88 1.17 0z"/>
  <path fill="#FEFEFE" fill-rule="nonzero" d="M340.37 13.44l-306.47 0 0 17.15 306.47 0 0 -17.15zm-306.91 -0.9l307.8 0 0 18.95 -308.25 0 0 -18.95 0.45 0z"/>
  <path fill="#FEFEFE" fill-rule="nonzero" d="M340.37 49.54l-306.47 0 0 17.15 306.47 0 0 -17.15zm-306.91 -0.9l307.8 0 0 18.95 -308.25 0 0 -18.95 0.45 0z"/>
  <path fill="#FEFEFE" fill-rule="nonzero" d="M340.37 85.64l-306.47 0 0 17.15 306.47 0 0 -17.15zm-306.91 -0.9l307.8 0 0 18.95 -308.25 0 0 -18.95 0.45 0z"/>
  <path fill="#FEFEFE" fill-rule="nonzero" d="M340.37 121.74l-306.47 0 0 17.14 306.47 0 0 -17.14zm-306.91 -0.9l307.8 0 0 18.94 -308.25 0 0 -18.94 0.45 0z"/>
  <path fill="#FEFEFE" fill-rule="nonzero" d="M340.37 157.83l-306.47 0 0 17.15 306.47 0 0 -17.15zm-306.91 -0.9l307.8 0 0 18.95 -308.25 0 0 -18.95 0.45 0z"/>
  <path fill="#FEFEFE" fill-rule="nonzero" d="M340.37 193.93l-306.47 0 0 17.15 306.47 0 0 -17.15zm-306.91 -0.9l307.8 0 0 18.95 -308.25 0 0 -18.95 0.45 0z"/>
  <path fill="#FEFEFE" fill-rule="nonzero" d="M340.37 230.03l-306.47 0 0 17.15 306.47 0 0 -17.15zm-306.91 -0.9l307.8 0 0 18.95 -308.25 0 0 -18.95 0.45 0z"/>
  <path fill="#FEFEFE" fill-rule="nonzero" d="M340.37 266.13l-306.47 0 0 17.15 306.47 0 0 -17.15zm-306.91 -0.9l307.8 0 0 18.95 -308.25 0 0 -18.95 0.45 0z"/>
  <path fill="#FEFEFE" fill-rule="nonzero" d="M340.37 302.23l-306.47 0 0 17.15 306.47 0 0 -17.15zm-306.91 -0.9l307.8 0 0 18.95 -308.25 0 0 -18.95 0.45 0z"/>
  <path fill="#FEFEFE" fill-rule="nonzero" d="M340.37 338.33l-306.47 0 0 17.15 306.47 0 0 -17.15zm-306.91 -0.9l307.8 0 0 18.95 -308.25 0 0 -18.95 0.45 0z"/>
  <path fill="#FEFEFE" fill-rule="nonzero" d="M340.37 374.42l-306.47 0 0 17.15 306.47 0 0 -17.15zm-306.91 -0.9l307.8 0 0 18.95 -308.25 0 0 -18.95 0.45 0z"/>
  <path fill="#FEFEFE" fill-rule="nonzero" d="M340.37 410.52l-306.47 0 0 17.15 306.47 0 0 -17.15zm-306.91 -0.9l307.8 0 0 18.95 -308.25 0 0 -18.95 0.45 0z"/>
  <path fill="#FEFEFE" fill-rule="nonzero" d="M340.37 446.62l-306.47 0 0 17.15 306.47 0 0 -17.15zm-306.91 -0.9l307.8 0 0 18.95 -308.25 0 0 -18.95 0.45 0z"/>
  <path fill="#FEFEFE" fill-rule="nonzero" d="M340.37 482.72l-306.47 0 0 17.15 306.47 0 0 -17.15zm-306.91 -0.9l307.8 0 0 18.95 -308.25 0 0 -18.95 0.45 0z"/>
  <path fill="#FEFEFE" fill-rule="nonzero" d="M340.37 518.82l-306.47 0 0 17.15 306.47 0 0 -17.15zm-306.91 -0.9l307.8 0 0 18.95 -308.25 0 0 -18.95 0.45 0z"/>
  <path fill="#FEFEFE" fill-rule="nonzero" d="M340.37 554.92l-306.47 0 0 17.15 306.47 0 0 -17.15zm-306.91 -0.9l307.8 0 0 18.95 -308.25 0 0 -18.95 0.45 0z"/>
  <path fill="#FEFEFE" fill-rule="nonzero" d="M340.37 591.02l-306.47 0 0 17.14 306.47 0 0 -17.14zm-306.91 -0.9l307.8 0 0 18.94 -308.25 0 0 -18.94 0.45 0z"/>
  <path fill="#FEFEFE" fill-rule="nonzero" d="M340.37 627.11l-306.47 0 0 17.15 306.47 0 0 -17.15zm-306.91 -0.9l307.8 0 0 18.95 -308.25 0 0 -18.95 0.45 0z"/>
  <path fill="#FEFEFE" fill-rule="nonzero" d="M340.37 663.21l-306.47 0 0 17.15 306.47 0 0 -17.15zm-306.91 -0.9l307.8 0 0 18.95 -308.25 0 0 -18.95 0.45 0z"/>
  <path fill="#FEFEFE" fill-rule="nonzero" d="M340.37 699.31l-306.47 0 0 17.15 306.47 0 0 -17.15zm-306.91 -0.9l307.8 0 0 18.95 -308.25 0 0 -18.95 0.45 0z"/>
  <path fill="#FEFEFE" fill-rule="nonzero" d="M340.37 735.41l-306.47 0 0 17.15 306.47 0 0 -17.15zm-306.91 -0.9l307.8 0 0 18.95 -308.25 0 0 -18.95 0.45 0z"/>
  <path fill="#FEFEFE" fill-rule="nonzero" d="M340.37 771.51l-306.47 0 0 17.15 306.47 0 0 -17.15zm-306.91 -0.9l307.8 0 0 18.95 -308.25 0 0 -18.95 0.45 0z"/>
  <path fill="#FEFEFE" fill-rule="nonzero" d="M340.37 807.61l-306.47 0 0 17.15 306.47 0 0 -17.15zm-306.91 -0.9l307.8 0 0 18.95 -308.25 0 0 -18.95 0.45 0z"/>
  <path fill="#FEFEFE" fill-rule="nonzero" d="M340.37 843.71l-306.47 0 0 17.15 306.47 0 0 -17.15zm-306.91 -0.9l307.8 0 0 18.95 -308.25 0 0 -18.95 0.45 0z"/>
  <path fill="#FEFEFE" fill-rule="nonzero" d="M340.37 879.8l-306.47 0 0 17.15 306.47 0 0 -17.15zm-306.91 -0.9l307.8 0 0 18.95 -308.25 0 0 -18.95 0.45 0z"/>
  <path fill="#FEFEFE" fill-rule="nonzero" d="M340.37 915.9l-306.47 0 0 17.15 306.47 0 0 -17.15zm-306.91 -0.9l307.8 0 0 18.95 -308.25 0 0 -18.95 0.45 0z"/>
  <path fill="#FEFEFE" fill-rule="nonzero" d="M340.37 952l-306.47 0 0 17.15 306.47 0 0 -17.15zm-306.91 -0.9l307.8 0 0 18.95 -308.25 0 0 -18.95 0.45 0z"/>
  <path fill="#FEFEFE" fill-rule="nonzero" d="M340.37 988.1l-306.47 0 0 17.15 306.47 0 0 -17.15zm-306.91 -0.9l307.8 0 0 18.95 -308.25 0 0 -18.95 0.45 0z"/>
  <path fill="#FEFEFE" fill-rule="nonzero" d="M340.37 1024.2l-306.47 0 0 17.15 306.47 0 0 -17.15zm-306.91 -0.9l307.8 0 0 18.95 -308.25 0 0 -18.95 0.45 0z"/>
  <path fill="#FEFEFE" fill-rule="nonzero" d="M340.37 1060.3l-306.47 0 0 17.15 306.47 0 0 -17.15zm-306.91 -0.9l307.8 0 0 18.95 -308.25 0 0 -18.95 0.45 0z"/>
  <path fill="#FEFEFE" fill-rule="nonzero" d="M340.37 1096.39l-306.47 0 0 17.15 306.47 0 0 -17.15zm-306.91 -0.9l307.8 0 0 18.95 -308.25 0 0 -18.95 0.45 0z"/>
  <path fill="#FEFEFE" fill-rule="nonzero" d="M340.37 1132.49l-306.47 0 0 17.15 306.47 0 0 -17.15zm-306.91 -0.9l307.8 0 0 18.95 -308.25 0 0 -18.95 0.45 0z"/>
  <path fill="#FEFEFE" fill-rule="nonzero" d="M340.37 1168.59l-306.47 0 0 17.15 306.47 0 0 -17.15zm-306.91 -0.9l307.8 0 0 18.95 -308.25 0 0 -18.95 0.45 0z"/>
  <path fill="#FEFEFE" fill-rule="nonzero" d="M340.37 1204.69l-306.47 0 0 17.15 306.47 0 0 -17.15zm-306.91 -0.9l307.8 0 0 18.95 -308.25 0 0 -18.95 0.45 0z"/>
  <path fill="#FEFEFE" fill-rule="nonzero" d="M340.37 1240.79l-306.47 0 0 17.15 306.47 0 0 -17.15zm-306.91 -0.9l307.8 0 0 18.95 -308.25 0 0 -18.95 0.45 0z"/>
  <path fill="#FEFEFE" fill-rule="nonzero" d="M340.37 1276.89l-306.47 0 0 17.15 306.47 0 0 -17.15zm-306.91 -0.9l307.8 0 0 18.95 -308.25 0 0 -18.95 0.45 0z"/>
  <path fill="#FEFEFE" fill-rule="nonzero" d="M678.12 14.17l-336.14 0 0 1297.16 336.14 0 0 -1297.16zm-337.31 -2.36l339.65 0 0 1301.88 -340.82 0 0 -1301.88 1.17 0z"/>
  <polygon fill="#DCDDDF" points="576.84,12.99 474.39,12.99 474.39,1312.51 576.84,1312.51 "/>
  <path fill="#FEFEFE" fill-rule="nonzero" d="M575.67 14.17l-100.12 0 0 1297.16 100.12 0 0 -1297.16zm-101.28 -2.36l103.62 0 0 1301.88 -104.79 0 0 -1301.88 1.17 0z"/>
  <polygon fill="#D2D3D5" points="679.29,12.99 576.84,12.99 576.84,1312.51 679.29,1312.51 "/>
  <path fill="#FEFEFE" fill-rule="nonzero" d="M678.12 14.17l-100.12 0 0 1297.16 100.12 0 0 -1297.16zm-101.28 -2.36l103.62 0 0 1301.88 -104.79 0 0 -1301.88 1.17 0z"/>
  <polygon fill="#E6E7E8" points="474.39,12.99 371.93,12.99 371.93,1312.51 474.39,1312.51 "/>
  <path fill="#FEFEFE" fill-rule="nonzero" d="M473.22 14.17l-100.12 0 0 1297.16 100.12 0 0 -1297.16zm-101.29 -2.36l103.62 0 0 1301.88 -104.78 0 0 -1301.88 1.16 0z"/>
  <path fill="#FEFEFE" fill-rule="nonzero" d="M678.84 13.44l-306.46 0 0 17.15 306.46 0 0 -17.15zm-306.91 -0.9l307.8 0 0 18.95 -308.24 0 0 -18.95 0.44 0z"/>
  <path fill="#FEFEFE" fill-rule="nonzero" d="M678.84 49.54l-306.46 0 0 17.15 306.46 0 0 -17.15zm-306.91 -0.9l307.8 0 0 18.95 -308.24 0 0 -18.95 0.44 0z"/>
  <path fill="#FEFEFE" fill-rule="nonzero" d="M678.84 85.64l-306.46 0 0 17.15 306.46 0 0 -17.15zm-306.91 -0.9l307.8 0 0 18.95 -308.24 0 0 -18.95 0.44 0z"/>
  <path fill="#FEFEFE" fill-rule="nonzero" d="M678.84 121.74l-306.46 0 0 17.14 306.46 0 0 -17.14zm-306.91 -0.9l307.8 0 0 18.94 -308.24 0 0 -18.94 0.44 0z"/>
  <path fill="#FEFEFE" fill-rule="nonzero" d="M678.84 157.83l-306.46 0 0 17.15 306.46 0 0 -17.15zm-306.91 -0.9l307.8 0 0 18.95 -308.24 0 0 -18.95 0.44 0z"/>
  <path fill="#FEFEFE" fill-rule="nonzero" d="M678.84 193.93l-306.46 0 0 17.15 306.46 0 0 -17.15zm-306.91 -0.9l307.8 0 0 18.95 -308.24 0 0 -18.95 0.44 0z"/>
  <path fill="#FEFEFE" fill-rule="nonzero" d="M678.84 230.03l-306.46 0 0 17.15 306.46 0 0 -17.15zm-306.91 -0.9l307.8 0 0 18.95 -308.24 0 0 -18.95 0.44 0z"/>
  <path fill="#FEFEFE" fill-rule="nonzero" d="M678.84 266.13l-306.46 0 0 17.15 306.46 0 0 -17.15zm-306.91 -0.9l307.8 0 0 18.95 -308.24 0 0 -18.95 0.44 0z"/>
  <path fill="#FEFEFE" fill-rule="nonzero" d="M678.84 302.23l-306.46 0 0 17.15 306.46 0 0 -17.15zm-306.91 -0.9l307.8 0 0 18.95 -308.24 0 0 -18.95 0.44 0z"/>
  <path fill="#FEFEFE" fill-rule="nonzero" d="M678.84 338.33l-306.46 0 0 17.15 306.46 0 0 -17.15zm-306.91 -0.9l307.8 0 0 18.95 -308.24 0 0 -18.95 0.44 0z"/>
  <path fill="#FEFEFE" fill-rule="nonzero" d="M678.84 374.42l-306.46 0 0 17.15 306.46 0 0 -17.15zm-306.91 -0.9l307.8 0 0 18.95 -308.24 0 0 -18.95 0.44 0z"/>
  <path fill="#FEFEFE" fill-rule="nonzero" d="M678.84 410.52l-306.46 0 0 17.15 306.46 0 0 -17.15zm-306.91 -0.9l307.8 0 0 18.95 -308.24 0 0 -18.95 0.44 0z"/>
  <path fill="#FEFEFE" fill-rule="nonzero" d="M678.84 446.62l-306.46 0 0 17.15 306.46 0 0 -17.15zm-306.91 -0.9l307.8 0 0 18.95 -308.24 0 0 -18.95 0.44 0z"/>
  <path fill="#FEFEFE" fill-rule="nonzero" d="M678.84 482.72l-306.46 0 0 17.15 306.46 0 0 -17.15zm-306.91 -0.9l307.8 0 0 18.95 -308.24 0 0 -18.95 0.44 0z"/>
  <path fill="#FEFEFE" fill-rule="nonzero" d="M678.84 518.82l-306.46 0 0 17.15 306.46 0 0 -17.15zm-306.91 -0.9l307.8 0 0 18.95 -308.24 0 0 -18.95 0.44 0z"/>
  <path fill="#FEFEFE" fill-rule="nonzero" d="M678.84 554.92l-306.46 0 0 17.15 306.46 0 0 -17.15zm-306.91 -0.9l307.8 0 0 18.95 -308.24 0 0 -18.95 0.44 0z"/>
  <path fill="#FEFEFE" fill-rule="nonzero" d="M678.84 591.02l-306.46 0 0 17.14 306.46 0 0 -17.14zm-306.91 -0.9l307.8 0 0 18.94 -308.24 0 0 -18.94 0.44 0z"/>
  <path fill="#FEFEFE" fill-rule="nonzero" d="M678.84 627.11l-306.46 0 0 17.15 306.46 0 0 -17.15zm-306.91 -0.9l307.8 0 0 18.95 -308.24 0 0 -18.95 0.44 0z"/>
  <path fill="#FEFEFE" fill-rule="nonzero" d="M678.84 663.21l-306.46 0 0 17.15 306.46 0 0 -17.15zm-306.91 -0.9l307.8 0 0 18.95 -308.24 0 0 -18.95 0.44 0z"/>
  <path fill="#FEFEFE" fill-rule="nonzero" d="M678.84 699.31l-306.46 0 0 17.15 306.46 0 0 -17.15zm-306.91 -0.9l307.8 0 0 18.95 -308.24 0 0 -18.95 0.44 0z"/>
  <path fill="#FEFEFE" fill-rule="nonzero" d="M678.84 735.41l-306.46 0 0 17.15 306.46 0 0 -17.15zm-306.91 -0.9l307.8 0 0 18.95 -308.24 0 0 -18.95 0.44 0z"/>
  <path fill="#FEFEFE" fill-rule="nonzero" d="M678.84 771.51l-306.46 0 0 17.15 306.46 0 0 -17.15zm-306.91 -0.9l307.8 0 0 18.95 -308.24 0 0 -18.95 0.44 0z"/>
  <path fill="#FEFEFE" fill-rule="nonzero" d="M678.84 807.61l-306.46 0 0 17.15 306.46 0 0 -17.15zm-306.91 -0.9l307.8 0 0 18.95 -308.24 0 0 -18.95 0.44 0z"/>
  <path fill="#FEFEFE" fill-rule="nonzero" d="M678.84 843.71l-306.46 0 0 17.15 306.46 0 0 -17.15zm-306.91 -0.9l307.8 0 0 18.95 -308.24 0 0 -18.95 0.44 0z"/>
  <path fill="#FEFEFE" fill-rule="nonzero" d="M678.84 879.8l-306.46 0 0 17.15 306.46 0 0 -17.15zm-306.91 -0.9l307.8 0 0 18.95 -308.24 0 0 -18.95 0.44 0z"/>
  <path fill="#FEFEFE" fill-rule="nonzero" d="M678.84 915.9l-306.46 0 0 17.15 306.46 0 0 -17.15zm-306.91 -0.9l307.8 0 0 18.95 -308.24 0 0 -18.95 0.44 0z"/>
  <path fill="#FEFEFE" fill-rule="nonzero" d="M678.84 952l-306.46 0 0 17.15 306.46 0 0 -17.15zm-306.91 -0.9l307.8 0 0 18.95 -308.24 0 0 -18.95 0.44 0z"/>
  <path fill="#FEFEFE" fill-rule="nonzero" d="M678.84 988.1l-306.46 0 0 17.15 306.46 0 0 -17.15zm-306.91 -0.9l307.8 0 0 18.95 -308.24 0 0 -18.95 0.44 0z"/>
  <path fill="#FEFEFE" fill-rule="nonzero" d="M678.84 1024.2l-306.46 0 0 17.15 306.46 0 0 -17.15zm-306.91 -0.9l307.8 0 0 18.95 -308.24 0 0 -18.95 0.44 0z"/>
  <path fill="#FEFEFE" fill-rule="nonzero" d="M678.84 1060.3l-306.46 0 0 17.15 306.46 0 0 -17.15zm-306.91 -0.9l307.8 0 0 18.95 -308.24 0 0 -18.95 0.44 0z"/>
  <path fill="#FEFEFE" fill-rule="nonzero" d="M678.84 1096.39l-306.46 0 0 17.15 306.46 0 0 -17.15zm-306.91 -0.9l307.8 0 0 18.95 -308.24 0 0 -18.95 0.44 0z"/>
  <path fill="#FEFEFE" fill-rule="nonzero" d="M678.84 1132.49l-306.46 0 0 17.15 306.46 0 0 -17.15zm-306.91 -0.9l307.8 0 0 18.95 -308.24 0 0 -18.95 0.44 0z"/>
  <path fill="#FEFEFE" fill-rule="nonzero" d="M678.84 1168.59l-306.46 0 0 17.15 306.46 0 0 -17.15zm-306.91 -0.9l307.8 0 0 18.95 -308.24 0 0 -18.95 0.44 0z"/>
  <path fill="#FEFEFE" fill-rule="nonzero" d="M678.84 1204.69l-306.46 0 0 17.15 306.46 0 0 -17.15zm-306.91 -0.9l307.8 0 0 18.95 -308.24 0 0 -18.95 0.44 0z"/>
  <path fill="#FEFEFE" fill-rule="nonzero" d="M678.84 1240.79l-306.46 0 0 17.15 306.46 0 0 -17.15zm-306.91 -0.9l307.8 0 0 18.95 -308.24 0 0 -18.95 0.44 0z"/>
  <path fill="#FEFEFE" fill-rule="nonzero" d="M678.84 1276.89l-306.46 0 0 17.15 306.46 0 0 -17.15zm-306.91 -0.9l307.8 0 0 18.95 -308.24 0 0 -18.95 0.44 0z"/>
  <path fill="#FAFAFC" fill-rule="nonzero" d="M338.48 990l-302.69 0 0 103.57 302.69 0 0 -103.57zm-305.02 -4.73l309.69 0 0 113.02 -312.03 0 0 -113.02 2.34 0z"/>
  <path fill="#FAFAFC" fill-rule="nonzero" d="M339.06 14.76l-303.85 0 0 104.75 303.85 0 0 -104.75zm-305.6 -3.54l309.1 0 0 111.83 -310.85 0 0 -111.83 1.75 0z"/>
  <path fill="#FAFAFC" fill-rule="nonzero" d="M339.06 123.06l-303.85 0 0 104.75 303.85 0 0 -104.75zm-305.6 -3.55l309.1 0 0 111.84 -310.85 0 0 -111.84 1.75 0z"/>
  <path fill="#FAFAFC" fill-rule="nonzero" d="M338.48 231.94l-302.69 0 0 103.57 302.69 0 0 -103.57zm-305.02 -4.72l309.69 0 0 113.01 -312.03 0 0 -113.01 2.34 0z"/>
  <path fill="#FAFAFC" fill-rule="nonzero" d="M338.48 340.24l-302.69 0 0 103.57 302.69 0 0 -103.57zm-305.02 -4.73l309.69 0 0 113.02 -312.03 0 0 -113.02 2.34 0z"/>
  <path fill="#FAFAFC" fill-rule="nonzero" d="M338.48 448.53l-302.69 0 0 103.57 302.69 0 0 -103.57zm-305.02 -4.72l309.69 0 0 113.02 -312.03 0 0 -113.02 2.34 0z"/>
  <path fill="#FAFAFC" fill-rule="nonzero" d="M338.48 556.83l-302.69 0 0 103.57 302.69 0 0 -103.57zm-305.02 -4.72l309.69 0 0 113.01 -312.03 0 0 -113.01 2.34 0z"/>
  <path fill="#FAFAFC" fill-rule="nonzero" d="M338.48 665.12l-302.69 0 0 103.57 302.69 0 0 -103.57zm-305.02 -4.72l309.69 0 0 113.02 -312.03 0 0 -113.02 2.34 0z"/>
  <path fill="#FAFAFC" fill-rule="nonzero" d="M338.48 773.41l-302.69 0 0 103.57 302.69 0 0 -103.57zm-305.02 -4.73l309.69 0 0 113.02 -312.03 0 0 -113.02 2.34 0z"/>
  <path fill="#FAFAFC" fill-rule="nonzero" d="M338.48 881.7l-302.69 0 0 103.57 302.69 0 0 -103.57zm-305.02 -4.72l309.69 0 0 113.02 -312.03 0 0 -113.02 2.34 0z"/>
  <path fill="#FAFAFC" fill-rule="nonzero" d="M338.48 1098.29l-302.69 0 0 103.57 302.69 0 0 -103.57zm-305.02 -4.72l309.69 0 0 113.01 -312.03 0 0 -113.01 2.34 0z"/>
  <path fill="#FAFAFC" fill-rule="nonzero" d="M338.48 1206.6l-302.69 0 0 103.57 302.69 0 0 -103.57zm-305.02 -4.72l309.69 0 0 113.02 -312.03 0 0 -113.02 2.34 0z"/>
  <path fill="#FAFAFC" fill-rule="nonzero" d="M676.96 990l-302.69 0 0 103.57 302.69 0 0 -103.57zm-305.03 -4.73l309.69 0 0 113.02 -312.02 0 0 -113.02 2.33 0z"/>
  <path fill="#FAFAFC" fill-rule="nonzero" d="M676.96 15.35l-302.69 0 0 103.57 302.69 0 0 -103.57zm-305.03 -4.72l309.69 0 0 113.02 -312.02 0 0 -113.02 2.33 0z"/>
  <path fill="#FAFAFC" fill-rule="nonzero" d="M676.96 123.65l-302.69 0 0 103.57 302.69 0 0 -103.57zm-305.03 -4.73l309.69 0 0 113.02 -312.02 0 0 -113.02 2.33 0z"/>
  <path fill="#FAFAFC" fill-rule="nonzero" d="M676.96 231.94l-302.69 0 0 103.57 302.69 0 0 -103.57zm-305.03 -4.72l309.69 0 0 113.01 -312.02 0 0 -113.01 2.33 0z"/>
  <path fill="#FAFAFC" fill-rule="nonzero" d="M676.96 340.24l-302.69 0 0 103.57 302.69 0 0 -103.57zm-305.03 -4.73l309.69 0 0 113.02 -312.02 0 0 -113.02 2.33 0z"/>
  <path fill="#FAFAFC" fill-rule="nonzero" d="M676.96 448.53l-302.69 0 0 103.57 302.69 0 0 -103.57zm-305.03 -4.72l309.69 0 0 113.02 -312.02 0 0 -113.02 2.33 0z"/>
  <path fill="#FAFAFC" fill-rule="nonzero" d="M676.96 556.83l-302.69 0 0 103.57 302.69 0 0 -103.57zm-305.03 -4.72l309.69 0 0 113.01 -312.02 0 0 -113.01 2.33 0z"/>
  <path fill="#FAFAFC" fill-rule="nonzero" d="M676.96 665.12l-302.69 0 0 103.57 302.69 0 0 -103.57zm-305.03 -4.72l309.69 0 0 113.02 -312.02 0 0 -113.02 2.33 0z"/>
  <path fill="#FAFAFC" fill-rule="nonzero" d="M676.96 773.41l-302.69 0 0 103.57 302.69 0 0 -103.57zm-305.03 -4.73l309.69 0 0 113.02 -312.02 0 0 -113.02 2.33 0z"/>
  <path fill="#FAFAFC" fill-rule="nonzero" d="M676.96 881.7l-302.69 0 0 103.57 302.69 0 0 -103.57zm-305.03 -4.72l309.69 0 0 113.02 -312.02 0 0 -113.02 2.33 0z"/>
  <path fill="#FAFAFC" fill-rule="nonzero" d="M676.96 1098.29l-302.69 0 0 103.57 302.69 0 0 -103.57zm-305.03 -4.72l309.69 0 0 113.01 -312.02 0 0 -113.01 2.33 0z"/>
  <path fill="#FAFAFC" fill-rule="nonzero" d="M676.96 1206.6l-302.69 0 0 103.57 302.69 0 0 -103.57zm-305.03 -4.72l309.69 0 0 113.02 -312.02 0 0 -113.02 2.33 0z"/>
  <path fill="#DCDDDF" fill-rule="nonzero" d="M31.12 15.35l-26.45 0 0 103.57 26.45 0 0 -103.57zm-28.79 -4.72l33.46 0 0 113.02 -35.79 0 0 -113.02 2.33 0z"/>
  <path fill="#DCDDDF" fill-rule="nonzero" d="M31.12 123.65l-26.45 0 0 103.57 26.45 0 0 -103.57zm-28.79 -4.73l33.46 0 0 113.02 -35.79 0 0 -113.02 2.33 0z"/>
  <path fill="#DCDDDF" fill-rule="nonzero" d="M31.12 231.94l-26.45 0 0 103.57 26.45 0 0 -103.57zm-28.79 -4.72l33.46 0 0 113.01 -35.79 0 0 -113.01 2.33 0z"/>
  <path fill="#DCDDDF" fill-rule="nonzero" d="M31.12 340.23l-26.45 0 0 103.57 26.45 0 0 -103.57zm-28.79 -4.72l33.46 0 0 113.02 -35.79 0 0 -113.02 2.33 0z"/>
  <path fill="#DCDDDF" fill-rule="nonzero" d="M31.12 448.53l-26.45 0 0 103.57 26.45 0 0 -103.57zm-28.79 -4.73l33.46 0 0 113.02 -35.79 0 0 -113.02 2.33 0z"/>
  <path fill="#DCDDDF" fill-rule="nonzero" d="M31.12 556.82l-26.45 0 0 103.57 26.45 0 0 -103.57zm-28.79 -4.72l33.46 0 0 113.01 -35.79 0 0 -113.01 2.33 0z"/>
  <path fill="#DCDDDF" fill-rule="nonzero" d="M31.12 665.12l-26.45 0 0 103.56 26.45 0 0 -103.56zm-28.79 -4.73l33.46 0 0 113.02 -35.79 0 0 -113.02 2.33 0z"/>
  <path fill="#DCDDDF" fill-rule="nonzero" d="M31.12 773.41l-26.45 0 0 103.57 26.45 0 0 -103.57zm-28.79 -4.73l33.46 0 0 113.02 -35.79 0 0 -113.02 2.33 0z"/>
  <path fill="#DCDDDF" fill-rule="nonzero" d="M31.12 881.7l-26.45 0 0 103.57 26.45 0 0 -103.57zm-28.79 -4.72l33.46 0 0 113.02 -35.79 0 0 -113.02 2.33 0z"/>
  <path fill="#DCDDDF" fill-rule="nonzero" d="M31.12 990l-26.45 0 0 103.57 26.45 0 0 -103.57zm-28.79 -4.73l33.46 0 0 113.02 -35.79 0 0 -113.02 2.33 0z"/>
  <path fill="#DCDDDF" fill-rule="nonzero" d="M31.12 1098.29l-26.45 0 0 103.57 26.45 0 0 -103.57zm-28.79 -4.72l33.46 0 0 113.01 -35.79 0 0 -113.01 2.33 0z"/>
  <path fill="#DCDDDF" fill-rule="nonzero" d="M31.12 1206.58l-26.45 0 0 103.57 26.45 0 0 -103.57zm-28.79 -4.72l33.46 0 0 113.02 -35.79 0 0 -113.02 2.33 0z"/>
  <path fill="#DCDDDF" fill-rule="nonzero" d="M369.6 15.35l-26.45 0 0 103.57 26.45 0 0 -103.57zm-28.79 -4.72l33.46 0 0 113.02 -35.79 0 0 -113.02 2.33 0z"/>
  <path fill="#DCDDDF" fill-rule="nonzero" d="M369.6 123.65l-26.45 0 0 103.57 26.45 0 0 -103.57zm-28.79 -4.73l33.46 0 0 113.02 -35.79 0 0 -113.02 2.33 0z"/>
  <path fill="#DCDDDF" fill-rule="nonzero" d="M369.6 231.94l-26.45 0 0 103.57 26.45 0 0 -103.57zm-28.79 -4.72l33.46 0 0 113.01 -35.79 0 0 -113.01 2.33 0z"/>
  <path fill="#DCDDDF" fill-rule="nonzero" d="M369.6 340.23l-26.45 0 0 103.57 26.45 0 0 -103.57zm-28.79 -4.72l33.46 0 0 113.02 -35.79 0 0 -113.02 2.33 0z"/>
  <path fill="#DCDDDF" fill-rule="nonzero" d="M369.6 448.53l-26.45 0 0 103.57 26.45 0 0 -103.57zm-28.79 -4.73l33.46 0 0 113.02 -35.79 0 0 -113.02 2.33 0z"/>
  <path fill="#DCDDDF" fill-rule="nonzero" d="M369.6 556.82l-26.45 0 0 103.57 26.45 0 0 -103.57zm-28.79 -4.72l33.46 0 0 113.01 -35.79 0 0 -113.01 2.33 0z"/>
  <path fill="#DCDDDF" fill-rule="nonzero" d="M369.6 665.12l-26.45 0 0 103.56 26.45 0 0 -103.56zm-28.79 -4.73l33.46 0 0 113.02 -35.79 0 0 -113.02 2.33 0z"/>
  <path fill="#DCDDDF" fill-rule="nonzero" d="M369.6 773.41l-26.45 0 0 103.57 26.45 0 0 -103.57zm-28.79 -4.73l33.46 0 0 113.02 -35.79 0 0 -113.02 2.33 0z"/>
  <path fill="#DCDDDF" fill-rule="nonzero" d="M369.6 881.7l-26.45 0 0 103.57 26.45 0 0 -103.57zm-28.79 -4.72l33.46 0 0 113.02 -35.79 0 0 -113.02 2.33 0z"/>
  <path fill="#DCDDDF" fill-rule="nonzero" d="M369.6 990l-26.45 0 0 103.57 26.45 0 0 -103.57zm-28.79 -4.73l33.46 0 0 113.02 -35.79 0 0 -113.02 2.33 0z"/>
  <path fill="#DCDDDF" fill-rule="nonzero" d="M369.6 1098.29l-26.45 0 0 103.57 26.45 0 0 -103.57zm-28.79 -4.72l33.46 0 0 113.01 -35.79 0 0 -113.01 2.33 0z"/>
  <path fill="#DCDDDF" fill-rule="nonzero" d="M369.6 1206.58l-26.45 0 0 103.57 26.45 0 0 -103.57zm-28.79 -4.72l33.46 0 0 113.02 -35.79 0 0 -113.02 2.33 0z"/>
  <path fill="#373435" fill-rule="nonzero" d="M22.53 41.29c0,1.8 -0.46,3.22 -1.38,4.27 -0.91,1.05 -2.15,1.57 -3.7,1.58 -1.54,-0.01 -2.78,-0.53 -3.7,-1.58 -0.93,-1.05 -1.39,-2.47 -1.39,-4.27l0 -4.68c0,-1.78 0.46,-3.2 1.38,-4.26 0.92,-1.06 2.14,-1.59 3.69,-1.59 1.55,0 2.79,0.53 3.71,1.59 0.93,1.06 1.39,2.48 1.39,4.26l0 4.68zm-2.16 -5.13c0,-1.14 -0.26,-2.04 -0.77,-2.71 -0.51,-0.66 -1.23,-0.99 -2.17,-0.99 -0.93,0 -1.65,0.33 -2.15,0.99 -0.51,0.67 -0.76,1.57 -0.76,2.71l0 5.56c0,1.15 0.26,2.06 0.78,2.73 0.51,0.67 1.23,1 2.15,1 0.94,0 1.66,-0.33 2.16,-1 0.51,-0.66 0.76,-1.57 0.76,-2.73l0 -5.56zm-1.46 118.59l-2.17 0 0 -13.93 -3.48 0.03 0 -1.66 5.65 -0.59 0 16.15zm3.77 107.84l-9.91 0 0 -1.48 5.01 -5.96c0.89,-1.07 1.5,-1.93 1.82,-2.57 0.31,-0.64 0.47,-1.28 0.47,-1.93 0,-0.73 -0.21,-1.34 -0.64,-1.81 -0.43,-0.47 -1.03,-0.7 -1.79,-0.7 -0.95,0 -1.67,0.28 -2.16,0.86 -0.49,0.58 -0.74,1.29 -0.74,2.15l-2.08 0 -0.03 -0.06c-0.03,-1.3 0.4,-2.4 1.31,-3.3 0.91,-0.9 2.14,-1.35 3.7,-1.35 1.42,0 2.55,0.4 3.37,1.18 0.81,0.79 1.23,1.81 1.23,3.05 0,0.84 -0.24,1.66 -0.7,2.46 -0.47,0.8 -1.17,1.81 -2.13,3.02l-4.02 4.7 0.02 0.05 7.27 0 0 1.69zm-5.21 98.78c0.97,0 1.65,-0.23 2.05,-0.71 0.4,-0.48 0.6,-1.15 0.6,-2 0,-0.81 -0.22,-1.45 -0.66,-1.94 -0.43,-0.5 -1.08,-0.74 -1.93,-0.74 -0.84,0 -1.53,0.25 -2.07,0.77 -0.55,0.51 -0.82,1.16 -0.82,1.93l-2.06 0 -0.03 -0.07c-0.04,-1.19 0.41,-2.22 1.36,-3.06 0.94,-0.85 2.15,-1.27 3.62,-1.27 1.48,0 2.65,0.38 3.49,1.12 0.84,0.75 1.26,1.85 1.26,3.3 0,0.74 -0.2,1.42 -0.59,2.03 -0.39,0.61 -0.94,1.09 -1.64,1.43 0.81,0.32 1.42,0.81 1.84,1.46 0.42,0.65 0.63,1.44 0.63,2.37 0,1.45 -0.46,2.6 -1.39,3.42 -0.92,0.83 -2.12,1.24 -3.6,1.25 -1.36,-0.01 -2.56,-0.4 -3.6,-1.2 -1.03,-0.8 -1.53,-1.86 -1.49,-3.16l0.02 -0.07 2.06 0c0,0.77 0.28,1.42 0.84,1.95 0.56,0.53 1.28,0.79 2.17,0.79 0.87,0 1.57,-0.27 2.07,-0.81 0.5,-0.54 0.76,-1.25 0.76,-2.13 0,-1 -0.23,-1.75 -0.7,-2.24 -0.46,-0.49 -1.19,-0.74 -2.19,-0.74l-1.77 0 0 -1.68 1.77 0zm3.45 111.54l2.2 0 0 1.68 -2.2 0 0 3.67 -2.15 0 0 -3.67 -6.86 0 0 -1.21 6.73 -11.03 2.28 0 0 10.56zm-6.7 0l4.55 0 0 -7.47 -0.07 -0.01 -0.21 0.55 -4.27 6.93zm-1.18 106.12l0.92 -8.84 8 0 0 1.91 -6.18 0 -0.51 4.58c0.34,-0.25 0.72,-0.46 1.14,-0.63 0.41,-0.16 0.89,-0.25 1.42,-0.25 1.48,-0.02 2.64,0.44 3.48,1.38 0.84,0.94 1.26,2.22 1.26,3.86 0,1.59 -0.44,2.87 -1.3,3.84 -0.85,0.97 -2.11,1.45 -3.75,1.46 -1.36,-0.01 -2.48,-0.37 -3.38,-1.11 -0.9,-0.74 -1.34,-1.82 -1.3,-3.24l0.02 -0.07 1.96 0c0,0.86 0.25,1.54 0.75,2.01 0.5,0.48 1.15,0.72 1.95,0.72 0.91,0 1.62,-0.32 2.13,-0.96 0.5,-0.64 0.75,-1.52 0.75,-2.64 0,-1.01 -0.25,-1.83 -0.76,-2.46 -0.51,-0.62 -1.22,-0.94 -2.12,-0.94 -0.85,0 -1.47,0.14 -1.85,0.39 -0.38,0.25 -0.66,0.65 -0.84,1.18l-1.79 -0.19zm5.11 98.77c0.63,0 1.25,0.06 1.87,0.19 0.61,0.12 1.12,0.28 1.52,0.47l-0.46 1.65c-0.41,-0.19 -0.85,-0.33 -1.31,-0.45 -0.46,-0.11 -1,-0.16 -1.62,-0.16 -1,0 -1.81,0.42 -2.44,1.27 -0.62,0.86 -0.94,1.93 -0.94,3.24l0 1.23c0.45,-0.44 0.98,-0.79 1.59,-1.04 0.61,-0.26 1.26,-0.39 1.97,-0.39 1.37,0 2.46,0.46 3.26,1.38 0.8,0.92 1.2,2.12 1.2,3.62 0,1.63 -0.44,2.93 -1.34,3.9 -0.9,0.98 -2.11,1.46 -3.63,1.47 -1.47,-0.01 -2.71,-0.56 -3.7,-1.68 -1,-1.12 -1.5,-2.65 -1.5,-4.59l0 -3.66c0,-1.87 0.53,-3.41 1.6,-4.62 1.06,-1.22 2.38,-1.83 3.93,-1.83zm-0.51 7.62c-0.68,0 -1.27,0.14 -1.75,0.43 -0.49,0.29 -0.86,0.68 -1.12,1.17l0 1.1c0,1.35 0.3,2.41 0.89,3.19 0.59,0.79 1.31,1.18 2.16,1.18 0.9,0 1.59,-0.34 2.08,-1.02 0.49,-0.68 0.73,-1.57 0.73,-2.66 0,-1.04 -0.26,-1.86 -0.78,-2.47 -0.52,-0.61 -1.26,-0.92 -2.21,-0.92zm5.14 102.14c-2.02,2.39 -3.38,4.51 -4.09,6.33 -0.71,1.83 -1.07,3.88 -1.07,6.15l0 1.74 -2.16 0 0 -1.74c0,-2.4 0.45,-4.56 1.34,-6.49 0.89,-1.93 2.17,-3.92 3.86,-5.99l-8.48 0 0 -1.69 10.6 0 0 1.69zm-0.58 110.22c0,0.83 -0.23,1.56 -0.7,2.19 -0.47,0.63 -1.09,1.1 -1.87,1.41 0.91,0.32 1.64,0.82 2.19,1.5 0.55,0.69 0.82,1.48 0.82,2.37 0,1.47 -0.48,2.6 -1.43,3.4 -0.96,0.8 -2.17,1.2 -3.65,1.2 -1.57,0 -2.84,-0.4 -3.83,-1.2 -1,-0.8 -1.49,-1.93 -1.49,-3.4 0,-0.89 0.28,-1.68 0.84,-2.37 0.56,-0.68 1.31,-1.19 2.26,-1.51 -0.82,-0.31 -1.46,-0.77 -1.94,-1.4 -0.48,-0.63 -0.71,-1.36 -0.71,-2.19 0,-1.4 0.45,-2.46 1.34,-3.19 0.9,-0.74 2.07,-1.11 3.51,-1.11 1.36,0 2.48,0.37 3.35,1.11 0.87,0.74 1.31,1.8 1.31,3.19zm-1.71 7.43c0,-0.87 -0.28,-1.58 -0.85,-2.15 -0.57,-0.55 -1.27,-0.83 -2.1,-0.83 -0.91,0 -1.66,0.28 -2.25,0.83 -0.59,0.57 -0.89,1.28 -0.89,2.15 0,0.9 0.3,1.61 0.88,2.15 0.59,0.54 1.35,0.81 2.28,0.81 0.83,0 1.53,-0.27 2.09,-0.81 0.56,-0.55 0.84,-1.26 0.84,-2.15zm-0.45 -7.4c0,-0.77 -0.24,-1.4 -0.72,-1.89 -0.48,-0.5 -1.07,-0.75 -1.78,-0.75 -0.78,0 -1.43,0.24 -1.93,0.72 -0.51,0.48 -0.76,1.12 -0.76,1.92 0,0.81 0.26,1.46 0.77,1.96 0.51,0.51 1.16,0.76 1.94,0.76 0.71,0 1.3,-0.25 1.77,-0.76 0.47,-0.5 0.71,-1.15 0.71,-1.96zm-3.42 118.2c1.04,0 1.87,-0.36 2.51,-1.07 0.65,-0.72 0.97,-1.73 0.97,-3.04l0 -1.35c-0.35,0.51 -0.79,0.9 -1.32,1.17 -0.52,0.27 -1.09,0.4 -1.71,0.4 -1.54,0 -2.74,-0.47 -3.62,-1.42 -0.87,-0.94 -1.31,-2.25 -1.31,-3.93 0,-1.6 0.46,-2.91 1.39,-3.92 0.93,-1.02 2.08,-1.53 3.45,-1.53 1.59,0 2.87,0.5 3.84,1.5 0.97,1 1.45,2.41 1.45,4.23l0 4.83c0,1.83 -0.53,3.25 -1.58,4.28 -1.06,1.02 -2.41,1.53 -4.07,1.53 -0.57,0 -1.14,-0.06 -1.73,-0.17 -0.59,-0.12 -1.14,-0.29 -1.65,-0.52l0.32 -1.64c0.49,0.24 0.96,0.4 1.43,0.5 0.46,0.1 1,0.15 1.63,0.15zm0.45 -5.58c0.75,0 1.38,-0.17 1.9,-0.51 0.52,-0.34 0.89,-0.78 1.13,-1.31l0 -1.88c0,-1.19 -0.27,-2.1 -0.8,-2.75 -0.54,-0.64 -1.29,-0.97 -2.25,-0.97 -0.79,0 -1.44,0.35 -1.96,1.05 -0.53,0.69 -0.79,1.6 -0.79,2.71 0,1.1 0.24,1.98 0.72,2.65 0.49,0.68 1.17,1.01 2.05,1.01zm-3.33 114.87l-2.17 0 0 -13.92 -3.48 0.03 0 -1.66 5.65 -0.59 0 16.14zm13.96 -5.62c0,1.81 -0.46,3.23 -1.38,4.28 -0.91,1.05 -2.15,1.57 -3.7,1.57 -1.54,0 -2.78,-0.52 -3.7,-1.57 -0.93,-1.05 -1.39,-2.47 -1.39,-4.28l0 -4.67c0,-1.79 0.46,-3.21 1.38,-4.26 0.91,-1.06 2.14,-1.59 3.69,-1.59 1.55,0 2.79,0.53 3.71,1.59 0.93,1.05 1.39,2.47 1.39,4.26l0 4.67zm-2.16 -5.12c0,-1.15 -0.26,-2.05 -0.77,-2.71 -0.51,-0.66 -1.23,-1 -2.17,-1 -0.93,0 -1.65,0.34 -2.15,1 -0.51,0.66 -0.76,1.56 -0.76,2.71l0 5.56c0,1.15 0.26,2.05 0.78,2.72 0.51,0.68 1.23,1.01 2.15,1.01 0.93,0 1.66,-0.33 2.16,-1 0.51,-0.67 0.76,-1.58 0.76,-2.73l0 -5.56zm-11.8 118.58l-2.17 0 0 -13.92 -3.48 0.03 0 -1.66 5.65 -0.59 0 16.14zm10.34 0l-2.17 0 0 -13.92 -3.48 0.03 0 -1.66 5.65 -0.59 0 16.14z"/>
  <polygon fill="none" points="0,1317.82 1200,1317.82 1200,0.18 0,0.18 "/>
  <path fill="#373435" fill-rule="nonzero" d="M352.25 46.91l-2.17 0 0 -13.93 -3.48 0.03 0 -1.66 5.65 -0.59 0 16.15zm14.12 0l-9.92 0 0 -1.48 5.01 -5.96c0.9,-1.07 1.5,-1.93 1.82,-2.57 0.31,-0.64 0.48,-1.28 0.48,-1.93 0,-0.73 -0.22,-1.34 -0.65,-1.81 -0.43,-0.47 -1.03,-0.7 -1.79,-0.7 -0.95,0 -1.67,0.28 -2.16,0.86 -0.49,0.58 -0.74,1.29 -0.74,2.15l-2.08 0 -0.03 -0.06c-0.03,-1.3 0.4,-2.4 1.31,-3.29 0.91,-0.91 2.14,-1.36 3.7,-1.36 1.42,0 2.55,0.4 3.37,1.18 0.81,0.79 1.23,1.81 1.23,3.05 0,0.84 -0.24,1.66 -0.7,2.46 -0.47,0.8 -1.17,1.81 -2.12,3.02l-4.03 4.7 0.02 0.05 7.28 0 0 1.69zm-14.12 107.84l-2.17 0 0 -13.93 -3.48 0.03 0 -1.66 5.65 -0.59 0 16.15zm8.9 -9.05c0.97,0 1.65,-0.24 2.05,-0.72 0.4,-0.48 0.6,-1.15 0.6,-2 0,-0.81 -0.22,-1.45 -0.66,-1.94 -0.43,-0.5 -1.08,-0.74 -1.93,-0.74 -0.84,0 -1.53,0.26 -2.07,0.77 -0.55,0.51 -0.82,1.16 -0.82,1.93l-2.06 0 -0.03 -0.07c-0.04,-1.19 0.41,-2.21 1.36,-3.06 0.94,-0.84 2.15,-1.27 3.62,-1.27 1.48,0 2.65,0.38 3.49,1.12 0.84,0.75 1.26,1.85 1.26,3.3 0,0.74 -0.2,1.42 -0.59,2.03 -0.39,0.61 -0.94,1.09 -1.64,1.43 0.81,0.32 1.42,0.81 1.84,1.46 0.42,0.65 0.63,1.44 0.63,2.37 0,1.45 -0.46,2.6 -1.39,3.42 -0.92,0.83 -2.12,1.24 -3.6,1.25 -1.36,-0.01 -2.56,-0.4 -3.59,-1.2 -1.04,-0.8 -1.54,-1.85 -1.5,-3.16l0.02 -0.07 2.06 0c0,0.77 0.28,1.42 0.84,1.95 0.56,0.53 1.29,0.79 2.17,0.79 0.88,0 1.57,-0.27 2.07,-0.81 0.5,-0.54 0.76,-1.25 0.76,-2.13 0,-0.99 -0.23,-1.74 -0.7,-2.24 -0.46,-0.49 -1.19,-0.74 -2.19,-0.74l-1.77 0 0 -1.67 1.77 0zm-8.9 116.89l-2.17 0 0 -13.93 -3.48 0.03 0 -1.66 5.65 -0.59 0 16.15zm12.35 -5.36l2.2 0 0 1.68 -2.2 0 0 3.68 -2.15 0 0 -3.68 -6.86 0 0 -1.21 6.73 -11.03 2.28 0 0 10.56zm-6.7 0l4.55 0 0 -7.47 -0.07 -0.01 -0.2 0.55 -4.28 6.93zm-5.65 113.2l-2.17 0 0 -13.93 -3.48 0.03 0 -1.66 5.65 -0.59 0 16.15zm4.47 -7.08l0.92 -8.84 8 0 0 1.91 -6.18 0 -0.51 4.59c0.34,-0.26 0.72,-0.47 1.14,-0.63 0.41,-0.17 0.89,-0.26 1.43,-0.26 1.47,-0.02 2.63,0.45 3.47,1.38 0.84,0.94 1.26,2.22 1.26,3.86 0,1.59 -0.43,2.87 -1.3,3.84 -0.85,0.97 -2.11,1.45 -3.75,1.46 -1.36,-0.01 -2.48,-0.37 -3.38,-1.11 -0.9,-0.74 -1.33,-1.82 -1.3,-3.24l0.02 -0.07 1.96 0c0,0.87 0.25,1.54 0.75,2.01 0.5,0.48 1.15,0.72 1.95,0.72 0.91,0 1.62,-0.32 2.13,-0.96 0.5,-0.64 0.75,-1.52 0.75,-2.64 0,-1.01 -0.25,-1.83 -0.76,-2.45 -0.51,-0.63 -1.22,-0.94 -2.12,-0.94 -0.85,0 -1.47,0.13 -1.85,0.38 -0.38,0.25 -0.66,0.65 -0.84,1.18l-1.79 -0.19zm-4.47 114.91l-2.17 0 0 -13.92 -3.48 0.03 0 -1.66 5.65 -0.59 0 16.14zm9.58 -16.14c0.63,0 1.25,0.06 1.87,0.19 0.61,0.12 1.12,0.28 1.52,0.47l-0.46 1.65c-0.41,-0.18 -0.85,-0.33 -1.31,-0.45 -0.46,-0.11 -1,-0.16 -1.62,-0.16 -1,0 -1.81,0.42 -2.44,1.28 -0.62,0.85 -0.93,1.92 -0.93,3.23l0 1.23c0.44,-0.44 0.97,-0.79 1.58,-1.04 0.61,-0.26 1.26,-0.39 1.97,-0.39 1.37,0 2.46,0.46 3.26,1.38 0.8,0.92 1.21,2.13 1.21,3.62 0,1.63 -0.45,2.93 -1.35,3.9 -0.9,0.98 -2.1,1.46 -3.63,1.47 -1.47,-0.01 -2.71,-0.56 -3.7,-1.68 -1,-1.12 -1.5,-2.65 -1.5,-4.59l0 -3.66c0,-1.87 0.53,-3.41 1.6,-4.62 1.06,-1.22 2.38,-1.83 3.93,-1.83zm-0.51 7.62c-0.68,0 -1.26,0.14 -1.75,0.43 -0.49,0.29 -0.86,0.68 -1.11,1.17l0 1.1c0,1.35 0.29,2.41 0.88,3.19 0.59,0.79 1.31,1.18 2.16,1.18 0.9,0 1.6,-0.34 2.08,-1.02 0.49,-0.68 0.73,-1.57 0.73,-2.66 0,-1.04 -0.26,-1.86 -0.78,-2.47 -0.52,-0.61 -1.26,-0.92 -2.21,-0.92zm-9.07 116.36l-2.17 0 0 -13.92 -3.48 0.03 0 -1.66 5.65 -0.59 0 16.14zm14.21 -14.22c-2.02,2.39 -3.38,4.51 -4.09,6.33 -0.71,1.83 -1.07,3.88 -1.07,6.16l0 1.73 -2.16 0 0 -1.73c0,-2.41 0.45,-4.57 1.34,-6.5 0.89,-1.93 2.17,-3.92 3.86,-5.99l-8.48 0 0 -1.69 10.6 0 0 1.69zm-14.21 122.06l-2.17 0 0 -13.92 -3.48 0.03 0 -1.66 5.65 -0.59 0 16.14zm13.63 -11.84c0,0.83 -0.23,1.56 -0.7,2.19 -0.46,0.63 -1.09,1.1 -1.87,1.41 0.91,0.32 1.64,0.82 2.19,1.5 0.55,0.69 0.82,1.48 0.82,2.37 0,1.47 -0.48,2.6 -1.43,3.4 -0.96,0.8 -2.17,1.2 -3.65,1.21 -1.56,-0.01 -2.84,-0.41 -3.83,-1.21 -1,-0.8 -1.49,-1.93 -1.49,-3.4 0,-0.89 0.28,-1.68 0.84,-2.37 0.56,-0.68 1.31,-1.19 2.27,-1.51 -0.83,-0.3 -1.47,-0.77 -1.95,-1.4 -0.47,-0.63 -0.71,-1.36 -0.71,-2.19 0,-1.4 0.45,-2.46 1.34,-3.19 0.9,-0.74 2.07,-1.11 3.51,-1.11 1.36,0 2.48,0.37 3.35,1.11 0.87,0.74 1.31,1.8 1.31,3.19zm-1.71 7.43c0,-0.87 -0.28,-1.58 -0.85,-2.14 -0.56,-0.56 -1.27,-0.84 -2.1,-0.84 -0.91,0 -1.66,0.28 -2.25,0.84 -0.59,0.56 -0.89,1.27 -0.89,2.14 0,0.9 0.3,1.61 0.88,2.15 0.59,0.54 1.35,0.81 2.28,0.81 0.83,0 1.53,-0.27 2.09,-0.81 0.56,-0.54 0.84,-1.26 0.84,-2.15zm-0.45 -7.4c0,-0.76 -0.24,-1.4 -0.72,-1.89 -0.48,-0.5 -1.07,-0.74 -1.78,-0.74 -0.78,0 -1.43,0.23 -1.93,0.71 -0.51,0.48 -0.76,1.12 -0.76,1.92 0,0.81 0.26,1.47 0.77,1.97 0.51,0.5 1.16,0.75 1.94,0.75 0.71,0 1.3,-0.25 1.77,-0.75 0.48,-0.5 0.71,-1.16 0.71,-1.97zm-11.47 119.65l-2.17 0 0 -13.92 -3.48 0.03 0 -1.66 5.65 -0.59 0 16.14zm8.05 -1.45c1.04,0 1.88,-0.36 2.51,-1.07 0.65,-0.72 0.97,-1.73 0.97,-3.04l0 -1.35c-0.35,0.51 -0.79,0.9 -1.32,1.17 -0.52,0.27 -1.09,0.4 -1.71,0.4 -1.54,0 -2.74,-0.47 -3.62,-1.42 -0.87,-0.94 -1.31,-2.25 -1.31,-3.92 0,-1.61 0.46,-2.92 1.39,-3.93 0.93,-1.02 2.08,-1.53 3.45,-1.53 1.59,0 2.87,0.5 3.84,1.5 0.97,1 1.45,2.41 1.45,4.23l0 4.83c0,1.83 -0.53,3.25 -1.58,4.28 -1.06,1.02 -2.41,1.53 -4.07,1.53 -0.57,0 -1.14,-0.06 -1.73,-0.17 -0.59,-0.12 -1.14,-0.29 -1.65,-0.51l0.33 -1.65c0.48,0.24 0.95,0.4 1.42,0.5 0.46,0.1 1.01,0.15 1.63,0.15zm0.45 -5.58c0.75,0 1.38,-0.17 1.9,-0.51 0.52,-0.34 0.89,-0.78 1.13,-1.31l0 -1.88c0,-1.19 -0.27,-2.1 -0.8,-2.75 -0.54,-0.64 -1.29,-0.96 -2.25,-0.96 -0.79,0 -1.44,0.34 -1.96,1.04 -0.53,0.69 -0.79,1.6 -0.79,2.72 0,1.09 0.24,1.97 0.73,2.64 0.48,0.68 1.16,1.01 2.04,1.01zm-4.72 114.87l-9.92 0 0 -1.47 5.01 -5.96c0.9,-1.08 1.5,-1.93 1.82,-2.57 0.32,-0.64 0.48,-1.28 0.48,-1.93 0,-0.74 -0.22,-1.34 -0.65,-1.81 -0.43,-0.47 -1.03,-0.71 -1.79,-0.71 -0.94,0 -1.66,0.29 -2.15,0.87 -0.5,0.57 -0.75,1.29 -0.75,2.15l-2.08 0 -0.02 -0.06c-0.04,-1.3 0.4,-2.4 1.3,-3.3 0.91,-0.9 2.14,-1.35 3.7,-1.35 1.43,0 2.55,0.39 3.37,1.18 0.82,0.79 1.23,1.81 1.23,3.05 0,0.84 -0.23,1.66 -0.7,2.46 -0.46,0.8 -1.17,1.81 -2.12,3.01l-4.03 4.7 0.03 0.06 7.27 0 0 1.68zm10.18 -5.62c0,1.81 -0.46,3.23 -1.38,4.28 -0.91,1.05 -2.15,1.57 -3.7,1.57 -1.54,0 -2.78,-0.52 -3.7,-1.57 -0.93,-1.05 -1.39,-2.47 -1.39,-4.28l0 -4.67c0,-1.79 0.46,-3.21 1.38,-4.26 0.92,-1.06 2.14,-1.59 3.69,-1.59 1.55,0 2.79,0.53 3.71,1.59 0.93,1.05 1.39,2.47 1.39,4.26l0 4.67zm-2.16 -5.12c0,-1.15 -0.26,-2.05 -0.77,-2.71 -0.51,-0.66 -1.23,-1 -2.17,-1 -0.93,0 -1.65,0.34 -2.15,1 -0.5,0.66 -0.76,1.56 -0.76,2.71l0 5.56c0,1.15 0.26,2.05 0.78,2.73 0.51,0.67 1.23,1 2.15,1 0.94,0 1.66,-0.33 2.16,-1 0.51,-0.67 0.76,-1.58 0.76,-2.73l0 -5.56zm-8.02 118.58l-9.92 0 0 -1.47 5.01 -5.96c0.9,-1.08 1.5,-1.93 1.82,-2.57 0.32,-0.64 0.48,-1.28 0.48,-1.93 0,-0.74 -0.22,-1.34 -0.65,-1.81 -0.43,-0.47 -1.03,-0.71 -1.79,-0.71 -0.94,0 -1.66,0.29 -2.15,0.87 -0.5,0.57 -0.75,1.29 -0.75,2.15l-2.08 0 -0.02 -0.06c-0.04,-1.3 0.4,-2.4 1.3,-3.3 0.91,-0.9 2.14,-1.35 3.7,-1.35 1.43,0 2.55,0.39 3.37,1.18 0.82,0.79 1.23,1.81 1.23,3.05 0,0.84 -0.23,1.66 -0.7,2.46 -0.46,0.8 -1.17,1.8 -2.12,3.01l-4.03 4.7 0.03 0.06 7.27 0 0 1.68zm6.56 0l-2.17 0 0 -13.92 -3.48 0.03 0 -1.66 5.65 -0.59 0 16.14zm-6.56 107.84l-9.92 0 0 -1.48 5.01 -5.95c0.9,-1.08 1.5,-1.94 1.82,-2.57 0.32,-0.64 0.48,-1.28 0.48,-1.93 0,-0.74 -0.22,-1.34 -0.65,-1.81 -0.43,-0.47 -1.03,-0.71 -1.79,-0.71 -0.94,0 -1.66,0.29 -2.15,0.87 -0.5,0.57 -0.75,1.29 -0.75,2.15l-2.08 0 -0.02 -0.06c-0.04,-1.3 0.4,-2.4 1.3,-3.3 0.91,-0.9 2.14,-1.35 3.7,-1.35 1.43,0 2.55,0.39 3.37,1.18 0.82,0.79 1.23,1.8 1.23,3.05 0,0.84 -0.23,1.66 -0.7,2.46 -0.46,0.8 -1.17,1.8 -2.12,3.01l-4.03 4.7 0.03 0.06 7.27 0 0 1.68zm10.34 0l-9.92 0 0 -1.48 5.01 -5.95c0.9,-1.08 1.5,-1.94 1.82,-2.57 0.31,-0.64 0.48,-1.28 0.48,-1.93 0,-0.74 -0.22,-1.34 -0.65,-1.81 -0.43,-0.47 -1.03,-0.71 -1.79,-0.71 -0.95,0 -1.67,0.29 -2.16,0.87 -0.49,0.57 -0.74,1.29 -0.74,2.15l-2.08 0 -0.03 -0.06c-0.03,-1.3 0.4,-2.4 1.31,-3.3 0.91,-0.9 2.14,-1.35 3.7,-1.35 1.42,0 2.55,0.39 3.37,1.18 0.81,0.79 1.23,1.8 1.23,3.05 0,0.84 -0.24,1.66 -0.7,2.46 -0.47,0.8 -1.17,1.8 -2.12,3.01l-4.03 4.7 0.02 0.06 7.28 0 0 1.68zm-10.34 107.84l-9.92 0 0 -1.48 5.01 -5.95c0.9,-1.08 1.5,-1.94 1.82,-2.57 0.32,-0.64 0.48,-1.28 0.48,-1.93 0,-0.74 -0.22,-1.34 -0.65,-1.81 -0.43,-0.47 -1.03,-0.71 -1.79,-0.71 -0.94,0 -1.66,0.29 -2.15,0.87 -0.5,0.57 -0.75,1.29 -0.75,2.15l-2.08 0 -0.02 -0.07c-0.04,-1.29 0.4,-2.39 1.3,-3.29 0.91,-0.9 2.14,-1.35 3.7,-1.35 1.43,0 2.55,0.39 3.37,1.18 0.82,0.79 1.23,1.8 1.23,3.05 0,0.84 -0.23,1.66 -0.7,2.46 -0.46,0.8 -1.17,1.8 -2.12,3.01l-4.03 4.7 0.03 0.06 7.27 0 0 1.68zm5.12 -9.05c0.97,0 1.65,-0.24 2.05,-0.71 0.4,-0.48 0.6,-1.15 0.6,-2.01 0,-0.8 -0.22,-1.45 -0.66,-1.94 -0.43,-0.49 -1.08,-0.74 -1.93,-0.74 -0.84,0 -1.53,0.26 -2.07,0.77 -0.55,0.52 -0.82,1.16 -0.82,1.93l-2.06 0 -0.03 -0.06c-0.04,-1.2 0.41,-2.22 1.36,-3.06 0.94,-0.85 2.15,-1.27 3.62,-1.27 1.48,0 2.65,0.37 3.49,1.12 0.84,0.74 1.26,1.85 1.26,3.29 0,0.75 -0.2,1.42 -0.59,2.04 -0.39,0.61 -0.94,1.09 -1.64,1.43 0.81,0.32 1.42,0.8 1.84,1.46 0.42,0.65 0.63,1.44 0.63,2.36 0,1.46 -0.46,2.6 -1.39,3.43 -0.92,0.83 -2.12,1.24 -3.6,1.24 -1.36,0 -2.56,-0.4 -3.59,-1.19 -1.04,-0.8 -1.54,-1.86 -1.5,-3.17l0.02 -0.06 2.06 0c0,0.77 0.28,1.42 0.84,1.95 0.56,0.53 1.29,0.79 2.17,0.79 0.88,0 1.57,-0.27 2.07,-0.82 0.5,-0.54 0.76,-1.25 0.76,-2.12 0,-1 -0.23,-1.75 -0.7,-2.24 -0.46,-0.5 -1.19,-0.75 -2.19,-0.75l-1.77 0 0 -1.67 1.77 0z"/>
 </g>
</svg>
